<svg width="243" height="77" viewBox="0 0 243 77" fill="none" xmlns="http://www.w3.org/2000/svg">
<g clip-path="url(#clip0_1_41)">
<path fill-rule="evenodd" clip-rule="evenodd" d="M2.04208 37.0477V29.1934H9.36881C12.5667 29.1934 14.3662 30.6776 14.3662 32.8782V32.936C14.3662 35.2739 12.7062 36.6809 10.2611 36.9855V38.4461C13.6477 38.6455 15.4815 40.0333 15.4815 42.3047V42.3604C15.4815 44.8742 13.3088 46.4442 9.88141 46.4442H2.04208V38.4182V37.0477ZM12.481 37.5346C14.1089 36.8761 15.8805 35.5055 15.8805 32.7923V32.7344C15.8805 29.736 13.2809 27.8228 9.39668 27.8228H0.557861V47.8168H9.82567C14.1389 47.8168 16.9958 45.702 16.9958 42.3604V42.3047C16.9958 39.5336 14.8789 38.163 12.481 37.5346ZM226.935 47.8168V27.8228H242.018V31.7349H231.306V35.7908H240.731V39.7051H231.306V43.9025H242.159V47.8168H226.935ZM212.739 48.16C206.512 48.16 202.23 43.7889 202.23 37.8756V37.8177C202.23 32.1339 206.656 27.4796 212.713 27.4796C216.31 27.4796 218.48 28.4512 220.567 30.2208L217.796 33.5624C216.254 32.2776 214.882 31.5355 212.569 31.5355C209.369 31.5355 206.828 34.3623 206.828 37.762V37.8177C206.828 41.4746 209.339 44.16 212.885 44.16C214.483 44.16 215.911 43.761 217.024 42.961V40.1041H212.598V36.3056H221.282V44.9878C219.224 46.7315 216.396 48.16 212.739 48.16ZM193.146 47.8168L183.462 35.1067V47.8168H179.123V27.8228H183.177L192.545 40.1319V27.8228H196.889V47.8168H193.146ZM166.612 39.4478L163.952 32.964L161.298 39.4478H166.612ZM161.298 39.4478L157.897 47.8168H153.413L161.981 27.6791H166.039L174.609 47.8168H170.01L166.612 39.4478H161.298ZM144.503 47.8168V39.7888H136.392V47.8168H131.993V27.8228H136.392V35.7351H144.503V27.8228H148.902V47.8168H144.503ZM118.853 48.16C112.968 48.16 108.599 43.6173 108.599 37.8756V37.8177C108.599 32.1339 112.882 27.4796 119.023 27.4796C122.795 27.4796 125.052 28.7365 126.908 30.5639L124.108 33.7918C122.566 32.3913 120.994 31.5355 118.995 31.5355C115.626 31.5355 113.195 34.3345 113.195 37.762V37.8177C113.195 41.2472 115.568 44.1041 118.995 44.1041C121.281 44.1041 122.68 43.1883 124.252 41.7599L127.049 44.5889C124.994 46.7894 122.71 48.16 118.853 48.16ZM90.8567 40.962V47.8168H89.3731V27.8228H90.8567V40.962ZM102.429 27.8228H104.458L95.717 36.6466L104.828 47.8168H102.888L93.8317 36.6895L102.429 27.8228ZM75.9184 48.16C70.2046 48.16 65.9793 43.6173 65.9793 37.8756V37.8177C65.9793 32.1639 70.2046 27.4796 75.9763 27.4796C79.5474 27.4796 81.688 28.7923 83.7449 30.6775L82.6896 31.7628C80.9459 30.077 78.9447 28.8223 75.9463 28.8223C71.1483 28.8223 67.5193 32.7344 67.5193 37.762V37.8177C67.5193 42.8752 71.2062 46.8173 75.9763 46.8173C78.8589 46.8173 80.8301 45.7021 82.859 43.7031L83.8585 44.6747C81.7459 46.7595 79.4616 48.16 75.9184 48.16ZM58.837 37.8177C58.837 32.8781 55.2401 28.8223 50.2985 28.8223C45.3547 28.8223 41.8135 32.8202 41.8135 37.762V37.8177C41.8135 42.7615 45.4126 46.8173 50.3542 46.8173C55.2959 46.8173 58.837 42.8173 58.837 37.8756V37.8177ZM50.2985 48.16C44.2415 48.16 40.2714 43.332 40.2714 37.8756V37.8177C40.2714 32.3634 44.2994 27.4796 50.3542 27.4796C56.4112 27.4796 60.3791 32.3076 60.3791 37.762C60.4092 37.7898 60.4092 37.7898 60.3791 37.8177C60.3791 43.2741 56.3533 48.16 50.2985 48.16ZM23.1922 47.8168V27.8228H24.6786V46.4442H36.4172V47.8168H23.1922Z" fill="white"/>
</g>
<defs>
<clipPath id="clip0_1_41">
<rect width="242.365" height="76.1719" fill="white" transform="translate(0.42688 0.359375)"/>
</clipPath>
</defs>
</svg>
