<svg width="52" height="50" viewBox="0 0 52 50" fill="none" xmlns="http://www.w3.org/2000/svg">
<path d="M26.0012 48.5549C38.972 48.5549 49.4868 38.04 49.4868 25.0693C49.4868 12.0986 38.972 1.5837 26.0012 1.5837C13.0305 1.5837 2.51562 12.0986 2.51562 25.0693C2.51562 38.04 13.0305 48.5549 26.0012 48.5549Z" stroke="white" stroke-width="1.69968"/>
<path d="M14.6318 5.00756C14.9576 4.69956 15.6521 4.49991 16.9675 4.752C18.2432 4.99646 19.8759 5.62873 21.7676 6.63366C25.54 8.63767 30.1648 12.0278 34.725 16.3378C39.2852 20.6479 42.8721 25.0189 44.9924 28.5844C46.0557 30.3723 46.7246 31.9155 46.9833 33.1212C47.25 34.3645 47.0387 35.0208 46.7129 35.3288C46.387 35.6368 45.6926 35.8365 44.3771 35.5844C43.1014 35.3399 41.4687 34.7076 39.577 33.7027C35.8046 31.6987 31.1799 28.3086 26.6197 23.9985C22.0595 19.6885 18.4726 15.3174 16.3522 11.752C15.289 9.96404 14.62 8.42088 14.3614 7.2152C14.0947 5.97189 14.3059 5.31555 14.6318 5.00756Z" stroke="white" stroke-width="1.69968"/>
<path d="M38.2484 4.99761C38.5666 5.29836 38.7758 5.95692 38.4863 7.22827C38.2065 8.45695 37.5054 10.0322 36.402 11.859C34.2015 15.5019 30.5034 19.9784 25.8207 24.4042C21.138 28.8301 16.4016 32.3253 12.5473 34.4051C10.6145 35.448 8.94787 36.1106 7.64788 36.3751C6.30275 36.6487 5.60597 36.4509 5.28776 36.1502C4.96955 35.8494 4.7603 35.1909 5.0498 33.9195C5.32958 32.6908 6.03071 31.1156 7.13416 29.2888C9.33465 25.6459 13.0326 21.1694 17.7154 16.7435C22.3981 12.3177 27.1344 8.8225 30.9888 6.74273C32.9216 5.69981 34.5882 5.03714 35.8882 4.7727C37.2334 4.49909 37.9302 4.69686 38.2484 4.99761Z" stroke="white" stroke-width="1.69968"/>
</svg>
