<svg width="243" height="51" viewBox="0 0 243 51" fill="none" xmlns="http://www.w3.org/2000/svg">
<g clip-path="url(#clip0_27_5954)">
<path d="M50.3543 0.34375H0.210938V50.4872H50.3543V0.34375Z" fill="white"/>
<path d="M23.6115 28.759L14.9199 12.546H18.9314L23.9458 22.7418C23.9458 22.909 24.1129 23.0761 24.28 23.2433C24.4472 23.4104 24.4472 23.5776 24.6143 23.9118L24.7815 24.079V24.2462C24.9486 24.5805 24.9486 24.7476 25.1157 25.0819C25.2829 25.2491 25.2829 25.5833 25.45 25.7505C25.6172 25.2491 25.9515 24.9148 26.1186 24.2462C26.2857 23.7447 26.62 23.2433 26.9543 22.7418L31.9686 12.546H35.6459L26.9543 28.9262V39.2892H23.6115V28.759Z" fill="black"/>
<path d="M73.2536 10.0387C75.7608 10.0387 77.9336 10.7073 79.6051 12.0444L77.9336 14.0502C76.4294 13.0472 74.9251 12.3787 73.0864 12.3787C70.245 12.3787 68.0721 13.883 66.9021 16.7245C66.2335 18.396 65.8993 20.5688 65.8993 23.4103C65.8993 25.5831 66.2335 27.4217 66.735 28.7589C68.0721 31.9346 70.245 33.439 73.5879 33.439C75.4265 33.439 77.0979 32.9376 78.6022 31.7675L80.2737 33.9404C78.1008 35.2775 75.7608 35.9461 73.2536 35.9461C70.245 35.9461 67.7378 34.7761 65.7321 32.2689C63.7263 29.9289 62.8906 26.7531 62.8906 22.9089C62.8906 19.0645 63.8935 16.0559 65.8993 13.5488C67.7378 11.3758 70.245 10.0387 73.2536 10.0387Z" fill="white"/>
<path d="M82.7812 26.5856C82.7812 23.5771 83.4498 21.237 84.9541 19.5656C86.4585 17.8942 88.2974 16.8912 90.637 16.8912C93.3116 16.8912 95.4842 17.8942 96.9886 20.067C98.1588 21.7384 98.66 24.0785 98.66 26.9199C98.66 30.2628 97.6568 32.9372 95.8183 34.6086C94.481 35.7786 92.8096 36.4472 90.8041 36.4472C88.2974 36.4472 86.4585 35.6115 84.9541 33.7729C83.4498 32.1014 82.7812 29.5943 82.7812 26.5856ZM94.481 21.7384C93.6457 20.2342 92.4755 19.3984 90.637 19.3984C88.7985 19.3984 87.6283 20.067 86.793 21.4042C86.1242 22.407 85.9569 24.0785 85.9569 26.2513C85.9569 29.0928 86.2913 31.0985 87.1271 32.2685C87.9624 33.4386 89.1326 34.1072 90.8041 34.1072C92.8096 34.1072 94.1469 33.1043 94.816 31.2657C95.1501 30.2628 95.3171 28.9257 95.3171 27.2542C95.4842 24.7471 95.1501 22.9085 94.481 21.7384Z" fill="white"/>
<path d="M104.008 22.0727C104.008 20.2342 103.841 18.7299 103.34 17.5598L106.182 16.8912C106.683 17.7269 106.85 18.7299 106.85 19.5656V19.7327C107.518 19.0642 108.187 18.3956 109.19 17.8942C110.36 17.2255 111.363 16.8912 112.365 16.8912C113.87 16.8912 115.207 17.5598 116.043 18.7299C116.21 19.0642 116.544 19.5656 116.711 19.8999C118.717 17.8942 120.556 16.8912 122.562 16.8912C123.899 16.8912 125.068 17.3927 125.904 18.2285C126.74 19.2313 127.242 20.4013 127.242 21.7384V35.6115H124.233V21.9056C124.233 20.067 123.397 19.2313 121.892 19.2313C121.057 19.2313 120.054 19.5656 119.219 20.2342C118.885 20.5684 118.216 21.0699 117.38 21.7384L117.045 22.0727V35.6115H113.87V22.5741C113.87 21.4042 113.702 20.5684 113.368 20.2342C112.867 19.7327 112.365 19.5656 111.53 19.5656C110.193 19.5656 108.688 20.4013 106.85 22.0727V35.7786H104.008V22.0727Z" fill="white"/>
<path d="M132.422 9.36935L135.431 8.70081C135.765 10.038 135.932 11.5423 135.932 13.3808V17.5595C135.932 18.5623 135.932 19.2309 135.932 19.5653C137.603 17.8938 139.442 17.058 141.28 17.058C143.454 17.058 145.292 17.8938 146.462 19.5653C147.799 21.2367 148.468 23.5767 148.468 26.4182C148.468 29.4268 147.799 31.7668 146.462 33.6053C145.125 35.444 143.287 36.2797 141.113 36.2797C140.111 36.2797 139.275 36.1126 138.271 35.6111C137.269 35.1097 136.6 34.6083 136.099 33.9396C135.932 34.7754 135.765 35.444 135.598 35.9454H132.756C133.09 35.1097 133.257 33.6053 133.257 31.2654V13.7151C133.09 11.7094 132.923 10.2051 132.422 9.36935ZM137.269 20.7352C136.768 21.0695 136.266 21.571 135.932 22.0724V31.5996C137.102 33.1039 138.606 33.7725 140.445 33.7725C141.949 33.7725 143.119 33.2711 143.788 32.1011C144.623 30.7639 145.125 28.9253 145.125 26.251C145.125 23.9109 144.79 22.2395 143.955 21.2367C143.287 20.2338 142.116 19.7324 140.445 19.7324C139.442 19.5653 138.271 19.8995 137.269 20.7352Z" fill="white"/>
<path d="M152.814 11.7097C152.814 11.0411 152.982 10.5397 153.484 10.0382C153.985 9.53677 154.486 9.36963 155.155 9.36963C155.823 9.36963 156.325 9.53677 156.826 10.0382C157.328 10.5397 157.495 11.0411 157.495 11.7097C157.495 12.3783 157.328 12.8797 156.826 13.3811C156.325 13.8825 155.823 14.0497 155.155 14.0497C154.486 14.0497 153.985 13.8825 153.484 13.3811C152.982 12.8797 152.814 12.3783 152.814 11.7097ZM153.484 35.7785V17.3926L156.492 16.8912V35.7785H153.484Z" fill="white"/>
<path d="M163.01 22.0727C163.01 20.7356 163.01 19.8999 162.843 19.5656C162.843 19.0642 162.509 18.5627 162.174 17.7269L165.015 16.8912C165.517 17.8942 165.684 18.7299 165.684 19.7327C167.523 17.8942 169.529 16.8912 171.534 16.8912C172.537 16.8912 173.373 17.0584 174.209 17.5598C175.044 18.0613 175.713 18.7299 176.047 19.5656C176.381 20.2342 176.548 20.9027 176.548 21.7384V35.7786H173.707V23.2428C173.707 21.7384 173.54 20.7356 173.038 20.2342C172.537 19.7327 171.868 19.3984 171.033 19.3984C170.364 19.3984 169.362 19.7327 168.358 20.2342C167.356 20.7356 166.52 21.4042 165.852 22.0727V35.7786H163.01V22.0727Z" fill="white"/>
<path d="M183.234 21.4042L181.73 19.3984C184.237 17.7269 186.744 16.8912 189.419 16.8912C192.093 16.8912 193.765 17.8942 194.6 19.7327C194.935 20.4013 194.935 21.4042 194.935 22.9085V23.9114L194.767 29.9286C194.767 30.0957 194.767 30.43 194.767 30.7643C194.767 31.7671 194.767 32.4358 194.935 32.9372C195.102 33.6058 195.603 34.1072 196.271 34.4415L194.767 36.4472C193.431 35.9457 192.594 35.11 192.26 33.7729C190.589 35.4443 188.75 36.28 186.912 36.28C185.073 36.28 183.569 35.7786 182.399 34.7758C181.396 33.94 180.895 32.6029 180.895 30.9314C180.895 28.7586 181.73 27.2542 183.401 26.0842C185.073 24.9142 187.58 24.4128 190.589 24.4128C191.09 24.4128 191.424 24.4128 191.926 24.4128V23.0757C191.926 21.5713 191.759 20.5684 191.257 20.2342C190.589 19.5656 189.92 19.2313 188.75 19.2313C187.747 19.2313 186.577 19.5656 185.241 20.067C184.739 20.4013 184.07 20.9027 183.234 21.4042ZM192.093 31.2657L192.26 26.4185C191.424 26.4185 190.923 26.4185 190.756 26.4185C188.081 26.4185 186.41 26.9199 185.408 27.9229C184.739 28.5914 184.404 29.5943 184.404 30.9314C184.404 33.1043 185.408 34.2743 187.58 34.2743C189.586 34.1072 191.09 33.1043 192.093 31.2657Z" fill="white"/>
<path d="M204.462 17.3923H209.142L208.307 19.7323H204.462V31.5996C204.462 32.6025 204.63 33.2711 204.964 33.7725C205.298 34.1068 205.966 34.4411 206.802 34.4411C207.47 34.4411 208.139 34.274 208.641 34.1068L208.975 35.9454C207.972 36.4468 206.969 36.614 205.799 36.614C202.958 36.614 201.621 35.2768 201.621 32.4353V19.7323H199.113V17.3923H201.454V17.058C201.454 16.7238 201.621 15.3866 201.788 13.2137V12.7123L204.797 12.0437C204.462 14.0494 204.462 15.888 204.462 17.3923Z" fill="white"/>
<path d="M212.15 26.5856C212.15 23.5771 212.819 21.237 214.324 19.5656C215.66 17.8942 217.667 16.8912 220.006 16.8912C222.681 16.8912 224.854 17.8942 226.358 20.067C227.528 21.7384 228.029 24.0785 228.029 26.9199C228.029 30.2628 227.026 32.9372 225.188 34.6086C223.85 35.7786 222.179 36.4472 220.173 36.4472C217.667 36.4472 215.828 35.6115 214.324 33.7729C212.987 32.1014 212.15 29.5943 212.15 26.5856ZM224.018 21.7384C223.182 20.2342 222.012 19.3984 220.173 19.3984C218.335 19.3984 217.165 20.067 216.329 21.4042C215.66 22.407 215.493 24.0785 215.493 26.2513C215.493 29.0928 215.827 31.0985 216.663 32.2685C217.5 33.4386 218.669 34.1072 220.34 34.1072C222.347 34.1072 223.683 33.1043 224.352 31.2657C224.686 30.2628 224.854 28.9257 224.854 27.2542C224.854 24.7471 224.519 22.9085 224.018 21.7384Z" fill="white"/>
<path d="M233.545 21.7384C233.545 20.067 233.378 18.7299 232.877 17.7269L235.719 16.8912C236.22 17.8942 236.387 18.7299 236.387 19.7327V20.067C237.891 18.0613 239.563 17.0584 241.568 17.0584C241.903 17.0584 242.237 17.0584 242.571 17.2255L241.401 20.4013C241.067 20.2342 240.733 20.2342 240.566 20.2342C239.897 20.2342 239.061 20.4013 238.392 20.9027C237.724 21.4042 237.056 21.9056 236.721 22.5742C236.554 23.0757 236.387 23.7442 236.387 24.5799V36.1129H233.545V21.7384Z" fill="white"/>
</g>
<defs>
<clipPath id="clip0_27_5954">
<rect width="242.36" height="50.2031" fill="white" transform="translate(0.210938 0.34375)"/>
</clipPath>
</defs>
</svg>
