<svg width="243" height="45" viewBox="0 0 243 45" fill="none" xmlns="http://www.w3.org/2000/svg">
<g clip-path="url(#clip0_27_5969)">
<path d="M49.9071 12.6268C41.173 12.6268 34.3485 19.257 34.3485 28.133C34.3485 37.009 41.0006 43.5825 49.9071 43.5825C58.8136 43.5825 65.5814 36.8955 65.5814 28.0762C65.5814 19.3138 58.9293 12.6268 49.9071 12.6268ZM49.9638 37.1836C44.9901 37.1836 41.3454 33.3206 41.3454 28.133C41.3454 22.8864 44.9311 19.0257 49.9049 19.0257C54.9376 19.0257 58.5801 22.9453 58.5801 28.133C58.5801 33.3206 54.9376 37.1836 49.9638 37.1836ZM67.4888 19.3705H71.8275V43.0063H78.7676V13.2029H67.4888V19.3705ZM16.8825 19.0257C20.5271 19.0257 23.4189 21.2736 24.5166 24.6171H31.8627C30.5314 17.4696 24.6323 12.6268 16.9414 12.6268C8.2073 12.6268 1.38281 19.257 1.38281 28.133C1.38281 37.009 8.03488 43.5825 16.9414 43.5825C24.4599 43.5825 30.4747 38.7396 31.806 31.5332H24.5188C23.4778 34.8767 20.5861 37.1836 16.9414 37.1836C11.9087 37.1836 8.38189 33.3206 8.38189 28.133C8.37971 22.8886 11.8498 19.0257 16.8825 19.0257ZM199.356 25.2522L194.267 24.5036C191.838 24.1588 190.103 23.3513 190.103 21.4482C190.103 19.3727 192.359 18.336 195.424 18.336C198.778 18.336 200.919 19.7764 201.382 22.14H208.09C207.337 16.1449 202.711 12.629 195.598 12.629C188.252 12.629 183.394 16.3762 183.394 21.6795C183.394 26.7515 186.576 29.6934 192.994 30.6144L198.084 31.363C200.572 31.7078 201.96 32.6899 201.96 34.5341C201.96 36.8977 199.531 37.8776 196.176 37.8776C192.069 37.8776 189.756 36.2058 189.409 33.6698H182.584C183.222 39.4926 187.789 43.5846 196.118 43.5846C203.695 43.5846 208.725 40.1255 208.725 34.1871C208.725 28.8837 205.081 26.1164 199.356 25.2522ZM75.2976 0.924551C72.7528 0.924551 70.8432 2.76871 70.8432 5.3047C70.8432 7.84069 72.7507 9.68485 75.2976 9.68485C77.8423 9.68485 79.7519 7.84069 79.7519 5.3047C79.7497 2.76871 77.8423 0.924551 75.2976 0.924551ZM177.148 23.4058C177.148 16.9502 173.215 12.6268 164.887 12.6268C157.021 12.6268 152.626 16.6054 151.757 22.7162H158.641C158.988 20.3526 160.838 18.3928 164.771 18.3928C168.3 18.3928 170.035 19.9489 170.035 21.8519C170.035 24.3312 166.853 24.9641 162.921 25.3678C157.6 25.944 151.007 27.7882 151.007 34.7065C151.007 40.0687 154.998 43.5257 161.36 43.5257C166.334 43.5257 169.457 41.4502 171.02 38.1635C171.251 41.1032 173.449 43.0063 176.515 43.0063H180.563V36.8387H177.15V23.4058H177.148ZM170.321 30.9003C170.321 34.8789 166.851 37.8186 162.628 37.8186C160.024 37.8186 157.827 36.7231 157.827 34.4184C157.827 31.4787 161.356 30.6712 164.594 30.3263C167.717 30.0383 169.453 29.3464 170.321 28.0195V30.9003ZM133.479 12.6268C129.603 12.6268 126.365 14.2418 124.051 16.9502V0.636475H117.111V43.0085H123.936V39.0888C126.249 41.9129 129.547 43.5846 133.479 43.5846C141.808 43.5846 148.113 37.0133 148.113 28.1352C148.113 19.257 141.694 12.6268 133.479 12.6268ZM132.438 37.1836C127.465 37.1836 123.82 33.3206 123.82 28.133C123.82 22.9453 127.521 19.0257 132.495 19.0257C137.528 19.0257 141.055 22.8886 141.055 28.133C141.057 33.3228 137.412 37.1836 132.438 37.1836ZM100.513 12.6268C96.0023 12.6268 93.0517 14.4709 91.3167 17.0659V13.2029H84.4332V43.0063H91.3734V26.8082C91.3734 22.2535 94.2651 19.0257 98.5449 19.0257C102.537 19.0257 105.023 21.8498 105.023 25.944V43.0085H111.963V25.4268C111.965 17.9301 108.091 12.6268 100.513 12.6268ZM241.807 27.1531C241.807 18.6219 235.561 12.6268 227.174 12.6268C218.267 12.6268 211.731 19.3138 211.731 28.133C211.731 37.4149 218.73 43.5825 227.289 43.5825C234.52 43.5825 240.187 39.3158 241.632 33.2639H234.402C233.361 35.9156 230.816 37.4149 227.403 37.4149C222.948 37.4149 219.594 34.6476 218.843 29.8047H241.805V27.1531H241.807ZM219.251 24.8484C220.351 20.6974 223.474 18.6809 227.06 18.6809C230.993 18.6809 234 20.9288 234.694 24.8484H219.251Z" fill="white"/>
</g>
<defs>
<clipPath id="clip0_27_5969">
<rect width="242" height="44" fill="white" transform="translate(0.59375 0.4375)"/>
</clipPath>
</defs>
</svg>
